<mxfile host="65bd71144e" scale="3" border="0">
    <diagram id="KwvtM_ioJ-xc_FUsTVH3" name="ページ1">
        <mxGraphModel dx="832" dy="611" grid="1" gridSize="10" guides="1" tooltips="1" connect="1" arrows="1" fold="1" page="1" pageScale="1" pageWidth="827" pageHeight="1169" math="1" shadow="0" adaptiveColors="auto">
            <root>
                <mxCell id="0"/>
                <mxCell id="1" parent="0"/>
                <mxCell id="7" value="&lt;font color=&quot;#000000&quot;&gt;5G基地局&lt;/font&gt;" style="fontColor=#0066CC;verticalAlign=top;verticalLabelPosition=bottom;labelPosition=center;align=center;html=1;outlineConnect=0;fillColor=#CCCCCC;strokeColor=#000000;gradientColor=none;gradientDirection=north;strokeWidth=2;shape=mxgraph.networks.radio_tower;fontSize=16;" parent="1" vertex="1">
                    <mxGeometry x="400" y="313" width="55" height="100" as="geometry"/>
                </mxCell>
                <mxCell id="2" value="&lt;span style=&quot;font-size: 15px;&quot;&gt;クラウドで処理&lt;/span&gt;" style="ellipse;shape=cloud;whiteSpace=wrap;html=1;strokeWidth=3;" parent="1" vertex="1">
                    <mxGeometry x="350" y="505" width="240" height="80" as="geometry"/>
                </mxCell>
                <mxCell id="5" value="車載カメラ" style="text;html=1;align=center;verticalAlign=middle;resizable=0;points=[];autosize=1;strokeColor=none;fillColor=none;fontSize=16;" parent="1" vertex="1">
                    <mxGeometry x="49.5" y="430" width="100" height="30" as="geometry"/>
                </mxCell>
                <mxCell id="19" style="edgeStyle=none;html=1;exitX=0.91;exitY=1;exitDx=0;exitDy=0;exitPerimeter=0;entryX=0.106;entryY=0.644;entryDx=0;entryDy=0;entryPerimeter=0;fontSize=16;fontColor=#000000;endArrow=none;endFill=0;" parent="1" source="7" target="17" edge="1">
                    <mxGeometry relative="1" as="geometry"/>
                </mxCell>
                <mxCell id="21" style="edgeStyle=none;html=1;fontSize=16;fontColor=#000000;startArrow=classic;startFill=1;endArrow=classic;endFill=1;entryX=0.192;entryY=0.191;entryDx=0;entryDy=0;entryPerimeter=0;" parent="1" target="2" edge="1">
                    <mxGeometry relative="1" as="geometry">
                        <mxPoint x="400" y="440" as="sourcePoint"/>
                        <Array as="points"/>
                    </mxGeometry>
                </mxCell>
                <mxCell id="16" value="5Gを用いた&lt;br&gt;高速・大容量通信" style="text;html=1;align=center;verticalAlign=middle;resizable=0;points=[];autosize=1;strokeColor=none;fillColor=none;fontSize=16;" parent="1" vertex="1">
                    <mxGeometry x="210" y="300" width="150" height="50" as="geometry"/>
                </mxCell>
                <mxCell id="20" value="" style="edgeStyle=none;html=1;fontSize=16;fontColor=#000000;endArrow=classic;endFill=1;startArrow=classic;startFill=1;entryX=0.8;entryY=0.157;entryDx=0;entryDy=0;entryPerimeter=0;exitX=0.746;exitY=0.971;exitDx=0;exitDy=0;exitPerimeter=0;" parent="1" source="17" target="2" edge="1">
                    <mxGeometry relative="1" as="geometry">
                        <mxPoint x="561.8366938472946" y="440" as="sourcePoint"/>
                        <mxPoint x="577.6999999999998" y="534.4099999999999" as="targetPoint"/>
                    </mxGeometry>
                </mxCell>
                <mxCell id="17" value="" style="points=[];aspect=fixed;html=1;align=center;shadow=0;dashed=0;image;image=img/lib/allied_telesis/computer_and_terminals/Server_Desktop.svg;strokeColor=#000000;strokeWidth=3;fontSize=16;fontColor=#000000;" parent="1" vertex="1">
                    <mxGeometry x="510" y="386" width="42.599999999999994" height="54" as="geometry"/>
                </mxCell>
                <mxCell id="18" value="基地局近くの&lt;div&gt;サーバー&lt;/div&gt;" style="text;html=1;align=center;verticalAlign=middle;resizable=0;points=[];autosize=1;strokeColor=none;fillColor=none;fontSize=16;fontColor=#000000;" parent="1" vertex="1">
                    <mxGeometry x="480" y="336" width="120" height="50" as="geometry"/>
                </mxCell>
                <mxCell id="28" value="" style="html=1;outlineConnect=0;fillColor=none;gradientDirection=north;strokeWidth=2;shape=mxgraph.networks.comm_link_edge;html=1;exitX=1.024;exitY=0.434;exitDx=0;exitDy=0;exitPerimeter=0;strokeColor=#000000;" parent="1" source="29" target="7" edge="1">
                    <mxGeometry width="100" height="100" relative="1" as="geometry">
                        <mxPoint x="240" y="300" as="sourcePoint"/>
                        <mxPoint x="360" y="230" as="targetPoint"/>
                    </mxGeometry>
                </mxCell>
                <mxCell id="32" value="" style="group" parent="1" vertex="1" connectable="0">
                    <mxGeometry x="50" y="313" width="99" height="118" as="geometry"/>
                </mxCell>
                <mxCell id="29" value="" style="shape=mxgraph.signs.transportation.car_1;html=1;pointerEvents=1;fillColor=#000000;strokeColor=none;verticalLabelPosition=bottom;verticalAlign=top;align=center;" parent="32" vertex="1">
                    <mxGeometry y="30" width="99" height="88" as="geometry"/>
                </mxCell>
                <mxCell id="30" value="" style="shape=mxgraph.signs.tech.camera_2;html=1;pointerEvents=1;fillColor=#000000;strokeColor=none;verticalLabelPosition=bottom;verticalAlign=top;align=center;" parent="32" vertex="1">
                    <mxGeometry x="29.5" width="40.5" height="30" as="geometry"/>
                </mxCell>
            </root>
        </mxGraphModel>
    </diagram>
</mxfile>